<svg id="Layer_1" data-name="Layer 1" xmlns="http://www.w3.org/2000/svg" viewBox="0 0 792 612"><rect y="0.74" width="792" height="611.26" style="fill:#231f20"/><path d="M270.56,257.66v43.13h-8.13V257.66h-13.3v-6.91H395.71l12,6.91Z" style="fill:#ed1c24"/><path d="M323.06,300.79l-5.67-9.91H297.56l-5.81,9.91h-8.54l24.23-40,24.2,40Zm-22.49-15.12h13.95l-5.13-8.79c-.3-.56-.6-1.2-.92-1.93s-.64-1.54-1-2.43c-.27.84-.56,1.62-.87,2.35s-.62,1.4-.94,2Z" style="fill:#fff"/><path d="M336.36,300.79v-40h8.13V295h18.19v5.82Z" style="fill:#fff"/><path d="M369.27,300.79v-40h8.14v16.57l18-16.57h9.94l-19.82,17.8,22.18,22.23H397.2l-19.79-20.45v20.45Z" style="fill:#fff"/><path d="M343.4,359.62V317.89h8.13v35.66h18.19v6.07Z" style="fill:#fff"/><path d="M375.54,359.62V317.89h27.93v5.76H383.68v10.46h19.79v6H383.68v13.48h19.79v6.07Z" style="fill:#fff"/><path d="M412,359.68V317.89l31.79,24.57c.86.7,1.74,1.44,2.63,2.23s1.82,1.67,2.8,2.66V319.48h7.52v41.77l-32.44-25c-.86-.68-1.7-1.39-2.51-2.14s-1.58-1.54-2.31-2.36v27.95Z" style="fill:#fff"/><path d="M483.65,316.15v43.13h-8.13V316.15l-121.11-.88-11-6.91,153.48.88v6.91Z" style="fill:#ed1c24"/><path d="M517.58,359.3V336.4l-16.85-27.14h8.54l10.49,17c.25.43.57,1,.94,1.71s.76,1.47,1.15,2.29c.32-.8.65-1.55,1-2.26A18.82,18.82,0,0,1,524,326l10.76-16.78h8.14L525.64,336.4v22.9Z" style="fill:#fff"/><ellipse cx="445.26" cy="278.23" rx="8.3" ry="7.64" style="fill:#fff"/><polygon points="405.71 278.23 425.14 288.56 425.14 267.91 405.71 278.23" style="fill:#fff"/><rect x="431.53" y="268.04" width="7.09" height="20.38" transform="translate(156.84 713.3) rotate(-90)" style="fill:#fff"/><ellipse cx="261.25" cy="334.28" rx="8.3" ry="7.64" style="fill:#fff"/><polygon points="300.8 334.28 281.38 323.95 281.38 344.61 300.8 334.28" style="fill:#fff"/><rect x="267.9" y="324.09" width="7.09" height="20.38" transform="translate(605.72 62.84) rotate(90)" style="fill:#fff"/><path d="M335.45,316.81a12.11,12.11,0,0,0-3.69-4.89,12.48,12.48,0,0,0-4.49-2,38,38,0,0,0-8-.62H306.91v21.61l7.09,3.91-7.09,3.91v22.56h7.62V337.92h4.69a38.13,38.13,0,0,0,8-.61,12,12,0,0,0,4.49-2,11.75,11.75,0,0,0,3.69-4.9,17.18,17.18,0,0,0,1.33-6.82A16.75,16.75,0,0,0,335.45,316.81Zm-9.3,12.66q-2.25,1.51-9,1.52h-2.08V316.5h2.08c4.31,0,7.26.57,8.87,1.71s2.41,3.09,2.41,5.86Q328.41,327.94,326.15,329.47Z" style="fill:#fff"/></svg>